<?xml version="1.0" encoding="UTF-8" standalone="no"?>
<!DOCTYPE svg PUBLIC "-//W3C//DTD SVG 1.1//EN" "http://www.w3.org/Graphics/SVG/1.1/DTD/svg11.dtd">
<svg width="100%" height="100%" viewBox="0 0 3300 2550" version="1.1" xmlns="http://www.w3.org/2000/svg" xmlns:xlink="http://www.w3.org/1999/xlink" xml:space="preserve" xmlns:serif="http://www.serif.com/" style="fill-rule:evenodd;clip-rule:evenodd;stroke-linecap:round;stroke-linejoin:round;stroke-miterlimit:1.5;">
    <g transform="matrix(1.12232,0,0,0.969377,11.0017,-75.6666)">
        <g transform="matrix(1.1426,0,0,0.910305,-134.819,139.964)">
            <rect x="447.298" y="834.457" width="652.837" height="725.996" style="fill:rgb(235,235,235);stroke:black;stroke-width:2.63px;"/>
        </g>
        <g transform="matrix(1.71248,0,0,1,-304.828,-58.6894)">
            <text x="436.326px" y="1097.55px" style="font-family:'MalgunGothic', 'Malgun Gothic', sans-serif;font-size:58.333px;fill:rgb(9,0,0);">Infor<tspan x="559.714px 611.041px " y="1097.55px 1097.55px ">ma</tspan>tion</text>
            <g transform="matrix(58.3333,0,0,58.3333,699.367,1155.89)">
            </g>
            <text x="436.326px" y="1155.88px" style="font-family:'MalgunGothic', 'Malgun Gothic', sans-serif;font-size:58.333px;fill:rgb(9,0,0);">goes her<tspan x="668.149px " y="1155.88px ">e</tspan></text>
        </g>
        <g transform="matrix(1.43626,0,0,0.584507,-220.081,489.534)">
            <rect x="464.663" y="1056.43" width="400.714" height="574.762" style="fill:none;stroke:black;stroke-width:2.4px;"/>
        </g>
    </g>
    <g transform="matrix(1.08154,0,0,0.969377,936.678,-89.8332)">
        <g transform="matrix(1.1426,0,0,0.910305,-134.819,139.964)">
            <rect x="447.298" y="834.457" width="652.837" height="725.996" style="fill:rgb(235,235,235);stroke:black;stroke-width:2.7px;"/>
        </g>
        <g transform="matrix(1.71248,0,0,1,-304.828,-58.6894)">
            <text x="436.326px" y="1097.55px" style="font-family:'MalgunGothic', 'Malgun Gothic', sans-serif;font-size:58.333px;fill:rgb(9,0,0);">Infor<tspan x="559.714px 611.041px " y="1097.55px 1097.55px ">ma</tspan>tion</text>
            <g transform="matrix(58.3333,0,0,58.3333,699.367,1155.89)">
            </g>
            <text x="436.326px" y="1155.88px" style="font-family:'MalgunGothic', 'Malgun Gothic', sans-serif;font-size:58.333px;fill:rgb(9,0,0);">goes her<tspan x="668.149px " y="1155.88px ">e</tspan></text>
        </g>
        <g transform="matrix(1.43626,0,0,0.584507,-220.081,489.534)">
            <rect x="464.663" y="1056.43" width="400.714" height="574.762" style="fill:none;stroke:black;stroke-width:2.48px;"/>
        </g>
    </g>
    <g transform="matrix(1.06116,0,0,0.969377,1818.68,-89.8332)">
        <g transform="matrix(1.1426,0,0,0.910305,-134.819,139.964)">
            <rect x="447.298" y="834.457" width="652.837" height="725.996" style="fill:rgb(235,235,235);stroke:black;stroke-width:2.74px;"/>
        </g>
        <g transform="matrix(1.71248,0,0,1,-304.828,-58.6894)">
            <text x="436.326px" y="1097.55px" style="font-family:'MalgunGothic', 'Malgun Gothic', sans-serif;font-size:58.333px;fill:rgb(9,0,0);">Infor<tspan x="559.714px 611.041px " y="1097.55px 1097.55px ">ma</tspan>tion</text>
            <g transform="matrix(58.3333,0,0,58.3333,699.367,1155.89)">
            </g>
            <text x="436.326px" y="1155.88px" style="font-family:'MalgunGothic', 'Malgun Gothic', sans-serif;font-size:58.333px;fill:rgb(9,0,0);">goes her<tspan x="668.149px " y="1155.88px ">e</tspan></text>
        </g>
        <g transform="matrix(1.43626,0,0,0.584507,-220.081,489.534)">
            <rect x="464.663" y="1056.43" width="400.714" height="574.762" style="fill:none;stroke:black;stroke-width:2.52px;"/>
        </g>
    </g>
    <g transform="matrix(1.12232,0,0,1,11.0017,585.997)">
        <g transform="matrix(1.1426,0,0,0.910305,-134.819,139.964)">
            <rect x="447.298" y="834.457" width="652.837" height="725.996" style="fill:rgb(235,235,235);stroke:black;stroke-width:2.61px;"/>
        </g>
        <g transform="matrix(1.71248,0,0,1,-304.828,-58.6894)">
            <text x="436.326px" y="1097.55px" style="font-family:'MalgunGothic', 'Malgun Gothic', sans-serif;font-size:58.333px;fill:rgb(9,0,0);">Infor<tspan x="559.714px 611.041px " y="1097.55px 1097.55px ">ma</tspan>tion</text>
            <g transform="matrix(58.3333,0,0,58.3333,699.367,1155.89)">
            </g>
            <text x="436.326px" y="1155.88px" style="font-family:'MalgunGothic', 'Malgun Gothic', sans-serif;font-size:58.333px;fill:rgb(9,0,0);">goes her<tspan x="668.149px " y="1155.88px ">e</tspan></text>
        </g>
        <g transform="matrix(1.43626,0,0,0.584507,-220.081,489.534)">
            <rect x="464.663" y="1056.43" width="400.714" height="574.762" style="fill:none;stroke:black;stroke-width:2.39px;"/>
        </g>
    </g>
    <g transform="matrix(1.08154,0,0,1,936.678,571.83)">
        <g transform="matrix(1.1426,0,0,0.910305,-134.819,139.964)">
            <rect x="447.298" y="834.457" width="652.837" height="725.996" style="fill:rgb(235,235,235);stroke:black;stroke-width:2.67px;"/>
        </g>
        <g transform="matrix(1.71248,0,0,1,-304.828,-58.6894)">
            <text x="436.326px" y="1097.55px" style="font-family:'MalgunGothic', 'Malgun Gothic', sans-serif;font-size:58.333px;fill:rgb(9,0,0);">Infor<tspan x="559.714px 611.041px " y="1097.55px 1097.55px ">ma</tspan>tion</text>
            <g transform="matrix(58.3333,0,0,58.3333,699.367,1155.89)">
            </g>
            <text x="436.326px" y="1155.88px" style="font-family:'MalgunGothic', 'Malgun Gothic', sans-serif;font-size:58.333px;fill:rgb(9,0,0);">goes her<tspan x="668.149px " y="1155.88px ">e</tspan></text>
        </g>
        <g transform="matrix(1.43626,0,0,0.584507,-220.081,489.534)">
            <rect x="464.663" y="1056.43" width="400.714" height="574.762" style="fill:none;stroke:black;stroke-width:2.47px;"/>
        </g>
    </g>
    <g transform="matrix(1.06116,0,0,1,1903.39,557.664)">
        <g transform="matrix(1.1426,0,0,0.910305,-214.654,154.131)">
            <rect x="447.298" y="834.457" width="652.837" height="725.996" style="fill:rgb(235,235,235);stroke:black;stroke-width:2.71px;"/>
        </g>
        <g transform="matrix(1.71248,0,0,1,-304.828,-58.6894)">
            <text x="436.326px" y="1097.55px" style="font-family:'MalgunGothic', 'Malgun Gothic', sans-serif;font-size:58.333px;fill:rgb(9,0,0);">Infor<tspan x="559.714px 611.041px " y="1097.55px 1097.55px ">ma</tspan>tion</text>
            <g transform="matrix(58.3333,0,0,58.3333,699.367,1155.89)">
            </g>
            <text x="436.326px" y="1155.88px" style="font-family:'MalgunGothic', 'Malgun Gothic', sans-serif;font-size:58.333px;fill:rgb(9,0,0);">goes her<tspan x="668.149px " y="1155.88px ">e</tspan></text>
        </g>
        <g transform="matrix(1.43626,0,0,0.584507,-299.916,503.701)">
            <rect x="464.663" y="1056.43" width="400.714" height="574.762" style="fill:none;stroke:black;stroke-width:2.51px;"/>
        </g>
    </g>
    <g transform="matrix(1,0,0,1,25.4719,0)">
        <rect x="362.16" y="2170.17" width="2644.4" height="255" style="fill:rgb(235,235,235);stroke:black;stroke-width:2.9px;"/>
    </g>
    <g transform="matrix(2.95964,0,0,1.85752,-2332.55,-2062.83)">
        <g transform="matrix(122.61,0,0,122.61,1490.77,2390.77)">
        </g>
        <text x="1132.52px" y="2390.77px" style="font-family:'MalgunGothic', 'Malgun Gothic', sans-serif;font-size:122.61px;fill:rgb(9,0,0);">Foot<tspan x="1381.81px 1447.42px " y="2390.77px 2390.77px ">er</tspan></text>
    </g>
    <g transform="matrix(0.373905,0,0,1,140.487,-12.1429)">
        <rect x="416.106" y="190.238" width="2659.29" height="299.524" style="fill:rgb(235,235,235);stroke:black;stroke-width:3.84px;"/>
    </g>
    <g transform="matrix(1,0,0,1,-3.33564,-44.5371)">
        <rect x="359.425" y="267.169" width="874.286" height="210.45" style="fill:rgb(235,235,235);stroke:black;stroke-width:2.9px;"/>
    </g>
    <g transform="matrix(1.28234,0,0,1.28234,-310.35,-153.254)">
        <g transform="matrix(122.61,0,0,122.61,1122.02,420.952)">
        </g>
        <text x="557.758px" y="420.952px" style="font-family:'MalgunGothic', 'Malgun Gothic', sans-serif;font-size:122.61px;fill:rgb(9,0,0);">Place Title</text>
    </g>
    <g transform="matrix(0.674277,0,0,1,1009.82,-12.1429)">
        <rect x="416.106" y="190.238" width="2659.29" height="299.524" style="fill:rgb(235,235,235);stroke:black;stroke-width:3.4px;"/>
    </g>
    <g transform="matrix(1,0,0,1,-38.0996,-43.8897)">
        <rect x="1373.71" y="267.169" width="1657.14" height="210.45" style="fill:rgb(235,235,235);stroke:black;stroke-width:2.9px;"/>
    </g>
    <g transform="matrix(1.66667,0,0,1,-915.812,0)">
        <g transform="matrix(122.61,0,0,122.61,2299.34,360.265)">
        </g>
        <text x="1363.23px" y="360.265px" style="font-family:'MalgunGothic', 'Malgun Gothic', sans-serif;font-size:122.61px;fill:rgb(9,0,0);">Navigation place</text>
    </g>
    <g transform="matrix(1,0,0,1,0,3.80166)">
        <g transform="matrix(0.52626,0,0,1,1154.47,245.795)">
            <rect x="359.425" y="267.169" width="874.286" height="210.45" style="fill:rgb(235,235,235);stroke:black;stroke-width:3.63px;"/>
        </g>
        <g transform="matrix(1,0,0,1,105.562,-95.4305)">
            <g transform="matrix(122.61,0,0,122.61,1626.19,756.905)">
            </g>
            <text x="1290.39px" y="756.905px" style="font-family:'MalgunGothic', 'Malgun Gothic', sans-serif;font-size:122.61px;fill:rgb(9,0,0);">Home</text>
        </g>
    </g>
</svg>
